<svg width="1200" height="170" viewBox="0 0 1200 170" fill="none" xmlns="http://www.w3.org/2000/svg" role="img" aria-labelledby="title desc" shape-rendering="crispEdges">
  <title id="title">Gyuweon Park blue pixel footer</title>
  <desc id="desc">A stronger blue pixel-style footer for a GitHub profile README.</desc>
  <rect width="1200" height="170" fill="#07142F"/>
  <rect y="0" width="1200" height="42" fill="#83EAF1"/>
  <rect y="42" width="1200" height="42" fill="#4F8CFF"/>
  <rect y="84" width="1200" height="42" fill="#123A7A"/>
  <rect y="126" width="1200" height="44" fill="#0B1736"/>

  <g opacity="0.82">
    <rect x="0" y="0" width="32" height="64" fill="#07142F"/><rect x="32" y="0" width="32" height="40" fill="#102A56"/><rect x="64" y="0" width="32" height="72" fill="#07142F"/><rect x="96" y="0" width="32" height="48" fill="#102A56"/><rect x="128" y="0" width="32" height="80" fill="#07142F"/><rect x="160" y="0" width="32" height="32" fill="#102A56"/><rect x="192" y="0" width="32" height="64" fill="#07142F"/><rect x="224" y="0" width="32" height="40" fill="#102A56"/><rect x="256" y="0" width="32" height="72" fill="#07142F"/><rect x="288" y="0" width="32" height="48" fill="#102A56"/><rect x="320" y="0" width="32" height="80" fill="#07142F"/><rect x="352" y="0" width="32" height="32" fill="#102A56"/><rect x="384" y="0" width="32" height="64" fill="#07142F"/><rect x="416" y="0" width="32" height="40" fill="#102A56"/><rect x="448" y="0" width="32" height="72" fill="#07142F"/><rect x="480" y="0" width="32" height="48" fill="#102A56"/><rect x="512" y="0" width="32" height="80" fill="#07142F"/><rect x="544" y="0" width="32" height="32" fill="#102A56"/><rect x="576" y="0" width="32" height="64" fill="#07142F"/><rect x="608" y="0" width="32" height="40" fill="#102A56"/><rect x="640" y="0" width="32" height="72" fill="#07142F"/><rect x="672" y="0" width="32" height="48" fill="#102A56"/><rect x="704" y="0" width="32" height="80" fill="#07142F"/><rect x="736" y="0" width="32" height="32" fill="#102A56"/><rect x="768" y="0" width="32" height="64" fill="#07142F"/><rect x="800" y="0" width="32" height="40" fill="#102A56"/><rect x="832" y="0" width="32" height="72" fill="#07142F"/><rect x="864" y="0" width="32" height="48" fill="#102A56"/><rect x="896" y="0" width="32" height="80" fill="#07142F"/><rect x="928" y="0" width="32" height="32" fill="#102A56"/><rect x="960" y="0" width="32" height="64" fill="#07142F"/><rect x="992" y="0" width="32" height="40" fill="#102A56"/><rect x="1024" y="0" width="32" height="72" fill="#07142F"/><rect x="1056" y="0" width="32" height="48" fill="#102A56"/><rect x="1088" y="0" width="32" height="80" fill="#07142F"/><rect x="1120" y="0" width="32" height="32" fill="#102A56"/><rect x="1152" y="0" width="48" height="64" fill="#07142F"/>
  </g>

  <g opacity="0.78">
    <rect x="64" y="104" width="14" height="14" fill="#B7F7FF"/><rect x="78" y="118" width="14" height="14" fill="#B7F7FF"/><rect x="92" y="104" width="14" height="14" fill="#B7F7FF"/>
    <rect x="212" y="92" width="10" height="10" fill="#FFFFFF"/><rect x="222" y="102" width="10" height="10" fill="#FFFFFF"/><rect x="232" y="92" width="10" height="10" fill="#FFFFFF"/>
    <rect x="960" y="104" width="14" height="14" fill="#B7F7FF"/><rect x="974" y="118" width="14" height="14" fill="#B7F7FF"/><rect x="988" y="104" width="14" height="14" fill="#B7F7FF"/>
    <rect x="1100" y="92" width="10" height="10" fill="#FFFFFF"/><rect x="1110" y="102" width="10" height="10" fill="#FFFFFF"/><rect x="1120" y="92" width="10" height="10" fill="#FFFFFF"/>
  </g>

  <g>
    <rect x="374" y="66" width="452" height="62" fill="#83EAF1"/>
    <rect x="382" y="74" width="436" height="46" fill="#07142F"/>
    <text x="600" y="102" text-anchor="middle" fill="#FFFFFF" font-family="Consolas, Monaco, 'Courier New', monospace" font-size="24" font-weight="700">[ end of file ]</text>
  </g>
  <text x="600" y="148" text-anchor="middle" fill="#D8FBFF" font-family="Consolas, Monaco, 'Courier New', monospace" font-size="15">thanks for scrolling through my little data console</text>

  <g opacity="0.88">
    <rect x="0" y="150" width="24" height="20" fill="#83EAF1"/><rect x="24" y="138" width="24" height="32" fill="#4F8CFF"/><rect x="48" y="150" width="24" height="20" fill="#63A4FF"/><rect x="72" y="130" width="24" height="40" fill="#83EAF1"/><rect x="96" y="146" width="24" height="24" fill="#4F8CFF"/><rect x="120" y="138" width="24" height="32" fill="#63A4FF"/><rect x="144" y="154" width="24" height="16" fill="#83EAF1"/><rect x="168" y="134" width="24" height="36" fill="#4F8CFF"/><rect x="192" y="150" width="24" height="20" fill="#63A4FF"/><rect x="216" y="138" width="24" height="32" fill="#83EAF1"/><rect x="240" y="150" width="24" height="20" fill="#4F8CFF"/><rect x="264" y="130" width="24" height="40" fill="#63A4FF"/><rect x="288" y="146" width="24" height="24" fill="#83EAF1"/><rect x="312" y="138" width="24" height="32" fill="#4F8CFF"/><rect x="336" y="154" width="24" height="16" fill="#63A4FF"/><rect x="360" y="134" width="24" height="36" fill="#83EAF1"/><rect x="384" y="150" width="24" height="20" fill="#4F8CFF"/><rect x="408" y="138" width="24" height="32" fill="#63A4FF"/><rect x="432" y="150" width="24" height="20" fill="#83EAF1"/><rect x="456" y="130" width="24" height="40" fill="#4F8CFF"/><rect x="480" y="146" width="24" height="24" fill="#63A4FF"/><rect x="504" y="138" width="24" height="32" fill="#83EAF1"/><rect x="528" y="154" width="24" height="16" fill="#4F8CFF"/><rect x="552" y="134" width="24" height="36" fill="#63A4FF"/><rect x="576" y="150" width="24" height="20" fill="#83EAF1"/><rect x="600" y="138" width="24" height="32" fill="#4F8CFF"/><rect x="624" y="150" width="24" height="20" fill="#63A4FF"/><rect x="648" y="130" width="24" height="40" fill="#83EAF1"/><rect x="672" y="146" width="24" height="24" fill="#4F8CFF"/><rect x="696" y="138" width="24" height="32" fill="#63A4FF"/><rect x="720" y="154" width="24" height="16" fill="#83EAF1"/><rect x="744" y="134" width="24" height="36" fill="#4F8CFF"/><rect x="768" y="150" width="24" height="20" fill="#63A4FF"/><rect x="792" y="138" width="24" height="32" fill="#83EAF1"/><rect x="816" y="150" width="24" height="20" fill="#4F8CFF"/><rect x="840" y="130" width="24" height="40" fill="#63A4FF"/><rect x="864" y="146" width="24" height="24" fill="#83EAF1"/><rect x="888" y="138" width="24" height="32" fill="#4F8CFF"/><rect x="912" y="154" width="24" height="16" fill="#63A4FF"/><rect x="936" y="134" width="24" height="36" fill="#83EAF1"/><rect x="960" y="150" width="24" height="20" fill="#4F8CFF"/><rect x="984" y="138" width="24" height="32" fill="#63A4FF"/><rect x="1008" y="150" width="24" height="20" fill="#83EAF1"/><rect x="1032" y="130" width="24" height="40" fill="#4F8CFF"/><rect x="1056" y="146" width="24" height="24" fill="#63A4FF"/><rect x="1080" y="138" width="24" height="32" fill="#83EAF1"/><rect x="1104" y="154" width="24" height="16" fill="#4F8CFF"/><rect x="1128" y="134" width="24" height="36" fill="#63A4FF"/><rect x="1152" y="150" width="48" height="20" fill="#83EAF1"/>
  </g>
</svg>
